<?xml version="1.0" standalone="no"?>
<!DOCTYPE svg PUBLIC "-//W3C//DTD SVG 20010904//EN"
 "http://www.w3.org/TR/2001/REC-SVG-20010904/DTD/svg10.dtd">
<svg version="1.0" xmlns="http://www.w3.org/2000/svg"
 width="852.000000pt" height="852.000000pt" viewBox="0 0 852.000000 852.000000"
 preserveAspectRatio="xMidYMid meet">
<metadata>
Created by potrace 1.11, written by Peter Selinger 2001-2013
</metadata>
<g transform="translate(0.000000,852.000000) scale(0.100000,-0.100000)"
fill="#000000" stroke="none">
<path d="M2650 8510 c-241 -18 -585 -104 -840 -210 -213 -89 -521 -265 -555
-316 -13 -20 -16 -44 -14 -105 l3 -80 -69 -41 c-41 -25 -111 -83 -168 -140
-83 -83 -104 -111 -137 -180 -46 -101 -64 -175 -58 -248 3 -30 22 -197 43
-370 29 -242 42 -320 55 -337 14 -18 16 -31 9 -65 -19 -97 -9 -263 41 -681 28
-232 64 -537 80 -677 16 -140 55 -464 85 -720 30 -256 69 -580 85 -720 16
-140 55 -464 85 -720 90 -760 114 -965 136 -1165 11 -104 29 -221 41 -260 40
-136 157 -367 248 -490 21 -28 103 -114 184 -192 180 -172 349 -289 606 -416
175 -87 292 -134 470 -187 52 -15 147 -44 210 -63 307 -93 555 -121 1070 -121
515 0 763 28 1070 121 63 19 158 48 210 63 266 79 564 218 799 375 110 73 163
118 301 255 180 178 214 224 323 445 88 177 100 232 147 645 42 372 67 593 95
825 17 140 35 294 60 500 8 72 24 207 35 300 34 287 60 504 76 640 8 72 21
184 29 250 8 66 26 219 40 340 29 246 127 1069 151 1270 17 141 19 289 5 373
-7 44 -5 57 9 75 14 17 25 85 49 302 17 154 36 302 41 328 17 85 12 153 -20
249 -17 50 -46 114 -65 143 -49 74 -187 202 -269 251 l-69 41 2 81 c1 46 -3
90 -9 102 -25 47 -347 231 -560 320 -280 116 -600 193 -888 211 -231 15 -288
11 -397 -33 -49 -20 -166 -66 -259 -103 l-168 -67 -77 11 c-294 44 -951 42
-1285 -4 l-99 -14 -171 69 c-94 37 -214 85 -266 106 -90 36 -101 38 -215 40
-66 1 -172 -2 -235 -6z m442 -95 c62 -25 122 -50 133 -55 11 -5 56 -23 100
-40 44 -17 94 -37 110 -44 37 -17 155 -56 255 -86 41 -12 120 -37 175 -55 205
-67 338 -105 369 -105 46 0 151 26 341 85 94 29 224 70 290 90 101 31 507 184
640 241 35 15 63 16 219 10 343 -13 598 -68 941 -206 106 -42 276 -125 344
-167 l23 -15 -48 -32 c-32 -20 -49 -38 -49 -51 0 -25 -3 -27 -137 -81 -62 -25
-144 -59 -183 -76 -38 -17 -110 -46 -160 -63 -49 -18 -121 -45 -160 -59 -47
-18 -80 -25 -102 -21 -20 4 -57 -3 -99 -16 -38 -12 -93 -25 -124 -28 -53 -6
-55 -7 -55 -35 0 -16 7 -32 15 -36 22 -12 493 -185 580 -214 179 -59 483 -133
603 -147 56 -6 106 -14 110 -18 4 -4 -12 -14 -35 -21 -56 -18 -68 -28 -68 -55
0 -20 -24 -35 -177 -110 -97 -48 -208 -98 -247 -112 -157 -57 -367 -125 -476
-154 -63 -17 -155 -44 -205 -59 -117 -36 -129 -39 -147 -29 -8 5 -47 -1 -94
-13 -105 -29 -257 -29 -369 -1 -44 11 -86 18 -92 16 -17 -7 -17 -38 0 -51 24
-20 211 -55 302 -56 l90 -1 28 -55 28 -55 -88 -13 c-109 -16 -332 -9 -428 12
-62 14 -139 37 -328 97 -66 21 -188 66 -367 137 -69 27 -160 61 -202 76 l-78
28 0 69 c0 83 -3 82 127 37 76 -26 95 -29 108 -18 25 21 18 30 -42 56 -32 14
-65 29 -73 33 -8 4 -39 14 -67 21 -44 12 -62 12 -105 0 -86 -22 -168 -62 -174
-85 -4 -15 -24 -27 -72 -44 -37 -13 -114 -40 -172 -62 -141 -51 -338 -109
-489 -143 -71 -16 -75 -16 -92 2 -17 19 -20 19 -131 -5 -131 -28 -216 -26
-342 6 -56 14 -85 17 -98 10 -20 -11 -20 -11 -12 -33 7 -17 37 -28 151 -52 45
-9 81 -20 79 -23 -3 -4 22 -4 55 -1 57 6 60 5 55 -15 -2 -11 -8 -41 -11 -67
-6 -42 -10 -47 -29 -43 -11 2 -57 7 -101 10 -44 4 -116 17 -160 30 -44 13
-141 40 -215 61 -227 63 -756 255 -935 339 -154 72 -195 91 -261 118 -34 13
-96 48 -138 77 -75 50 -77 52 -60 71 10 11 32 29 50 40 l33 20 58 -27 c85 -39
162 -64 178 -58 18 7 27 32 13 40 -7 4 -6 10 3 16 11 8 10 9 -3 4 -9 -3 -45 5
-80 17 l-63 21 65 8 c201 23 394 66 640 143 132 41 619 223 638 237 30 25 8
39 -120 74 -122 34 -158 39 -158 25 0 -7 -5 -9 -12 -5 -8 5 -6 -2 3 -16 10
-16 38 -31 78 -44 33 -11 61 -23 61 -26 0 -4 -31 -19 -70 -33 -82 -30 -59 -35
-325 71 -110 44 -218 85 -240 92 -97 30 -485 231 -485 251 0 5 20 20 45 34
l44 27 70 -38 c59 -33 71 -36 85 -25 22 18 9 37 -48 71 l-48 27 34 21 c132 80
375 186 553 242 273 86 508 123 802 128 110 2 112 2 225 -43z m1487 -131 c2
-2 -65 -4 -150 -4 -189 0 -414 -14 -551 -35 -87 -12 -110 -13 -147 -1 -71 21
-56 22 444 50 69 4 398 -5 404 -10z m-3530 -711 c-31 -37 -79 -145 -99 -220
-27 -105 -27 -234 1 -304 11 -30 19 -68 17 -88 -4 -36 -4 -36 -42 41 -70 143
-71 265 -2 410 29 63 116 178 133 178 4 0 0 -8 -8 -17z m231 -676 c47 -19 126
-54 175 -77 50 -23 108 -50 130 -60 46 -21 300 -118 420 -160 245 -86 337
-119 340 -122 1 -2 7 -84 13 -183 38 -605 38 -602 14 -586 -13 8 -24 78 -43
281 -22 240 -21 235 -49 235 l-25 0 -3 -242 c-1 -134 -4 -243 -7 -243 -3 0
-22 6 -42 14 -21 8 -70 24 -108 35 -107 31 -105 27 -120 176 -8 72 -17 174
-21 227 -7 108 -21 140 -51 122 -16 -10 -18 -31 -21 -227 l-2 -216 -103 43
c-56 23 -103 49 -104 57 -7 56 -15 90 -20 85 -3 -3 -20 3 -38 14 -35 22 -45
18 -45 -17 0 -13 -6 -23 -12 -23 -20 1 -119 73 -142 103 -22 30 -37 119 -56
337 -13 153 -16 162 -43 158 -22 -3 -22 -7 -25 -200 -1 -109 -6 -198 -11 -198
-20 0 -39 40 -45 95 -7 62 -27 272 -46 475 -6 63 -12 123 -14 133 -3 13 -1 15
7 9 7 -5 50 -25 97 -45z m-233 -608 c18 -20 33 -41 33 -46 0 -5 -10 -29 -22
-54 -11 -24 -21 -49 -21 -54 0 -6 25 -47 57 -92 64 -92 198 -223 289 -285 34
-23 78 -55 97 -73 41 -35 212 -130 310 -170 36 -14 85 -36 110 -47 113 -52
398 -141 610 -190 25 -6 90 -21 145 -34 55 -13 145 -33 200 -44 55 -11 132
-26 170 -34 153 -32 318 -52 589 -71 200 -15 308 -23 586 -46 85 -7 243 -10
380 -7 176 3 217 2 165 -5 -123 -17 -729 -14 -915 5 -91 9 -194 17 -230 17
-107 1 -448 42 -685 82 -137 23 -378 69 -385 74 -5 3 -32 10 -61 15 -69 13
-451 134 -554 176 -289 116 -563 283 -711 432 -66 67 -185 229 -214 293 -16
35 -20 65 -19 149 l0 105 22 -30 c12 -16 37 -46 54 -66z m6503 -16 c0 -77 -5
-108 -21 -142 -36 -80 -40 -80 -67 1 -13 40 -29 79 -34 85 -8 9 5 29 46 73 31
34 56 65 56 71 0 5 5 9 10 9 6 0 10 -39 10 -97z m-4230 -156 c160 -26 237 -35
535 -58 77 -6 185 -15 240 -19 69 -6 27 -7 -135 -4 -207 4 -569 26 -625 39
-11 2 -69 9 -130 15 -60 5 -144 16 -185 22 l-75 12 65 12 c82 15 108 13 310
-19z m-2255 -298 c15 -116 35 -278 80 -654 14 -115 36 -300 50 -410 14 -110
38 -312 55 -450 16 -137 48 -396 70 -575 22 -179 51 -419 65 -535 37 -309 88
-727 145 -1190 48 -386 53 -417 91 -530 51 -152 120 -280 225 -420 119 -160
307 -328 505 -450 107 -66 379 -201 484 -240 320 -119 613 -193 920 -231 200
-26 797 -26 1005 0 393 47 804 165 1138 326 548 265 872 604 1015 1065 16 50
35 162 51 295 15 118 42 343 62 500 19 157 41 339 49 405 8 66 33 269 55 450
22 182 51 422 65 535 14 113 45 372 70 575 59 483 99 815 135 1110 16 132 37
305 47 383 16 133 19 147 50 190 18 26 33 42 33 36 0 -6 -14 -125 -30 -265
-17 -140 -44 -369 -60 -509 -16 -140 -55 -464 -85 -720 -30 -256 -69 -580 -85
-720 -16 -140 -55 -464 -85 -720 -85 -714 -111 -941 -145 -1245 -23 -205 -38
-302 -57 -360 -47 -149 -185 -401 -272 -498 -88 -97 -308 -293 -391 -348 -87
-57 -142 -88 -360 -202 -120 -62 -244 -111 -415 -164 -44 -13 -130 -40 -190
-58 -161 -50 -319 -82 -527 -107 -159 -19 -234 -21 -568 -21 -334 0 -409 2
-568 21 -208 25 -366 57 -527 107 -60 18 -146 45 -190 58 -227 70 -315 108
-615 270 -139 75 -244 151 -375 273 -167 156 -193 184 -250 269 -65 98 -178
327 -203 410 -12 43 -37 216 -62 440 -23 204 -53 460 -66 570 -13 110 -31 259
-39 330 -8 72 -35 299 -59 505 -25 206 -61 512 -81 680 -19 168 -42 359 -50
425 -8 66 -31 257 -50 425 -20 168 -58 493 -86 722 -27 229 -49 423 -49 430 0
6 13 -6 30 -29 26 -35 32 -56 45 -154z m729 -154 c64 -30 120 -55 126 -55 15
0 12 -12 -9 -39 l-18 -24 -54 21 c-51 19 -198 87 -206 96 -6 6 27 56 37 56 4
0 60 -25 124 -55z m60 -435 c24 -212 91 -1188 83 -1196 -6 -7 -203 110 -228
135 -14 13 -24 93 -53 416 -21 220 -43 465 -51 545 -8 80 -17 178 -20 217 l-7
73 135 -68 135 -67 6 -55z m1576 -441 c47 -5 92 -9 102 -9 23 0 28 -81 37
-591 5 -314 10 -431 19 -442 15 -18 156 -37 275 -37 l87 0 0 -105 0 -105 -37
0 c-60 0 -401 28 -478 39 -38 6 -76 11 -82 11 -9 0 -13 17 -13 53 0 28 -4 113
-10 187 -5 74 -15 297 -20 495 -6 198 -12 397 -14 443 l-2 83 25 -6 c14 -4 64
-11 111 -16z m1915 -31 c-3 -29 -12 -226 -20 -438 -17 -425 -26 -526 -56 -605
-22 -58 -73 -116 -147 -165 -62 -41 -111 -53 -213 -54 -77 0 -92 3 -152 32
-40 20 -77 47 -95 70 -59 76 -57 61 -53 622 2 283 4 516 5 517 1 1 60 6 130 9
l129 7 -9 -459 c-10 -544 -10 -528 10 -559 20 -30 75 -42 115 -25 64 26 64 30
91 685 6 154 13 303 16 331 l5 51 112 12 c61 7 113 14 116 17 15 14 21 -3 16
-48z m-965 -157 l0 -139 -67 -8 c-73 -7 -182 8 -194 27 -4 7 -8 67 -8 135 l-2
124 136 0 135 0 0 -139z m0 -665 c0 -386 -2 -435 -16 -440 -9 -3 -65 -6 -125
-6 l-109 0 0 108 c0 60 -3 258 -7 440 l-6 332 131 0 132 0 0 -434z m-2497 -86
c71 -39 77 -44 77 -74 0 -17 11 -200 25 -406 23 -343 35 -526 80 -1220 9 -129
22 -334 30 -455 8 -121 21 -328 30 -460 8 -132 17 -261 19 -287 l3 -47 -26 19
c-14 10 -42 36 -62 57 l-36 38 -22 195 c-11 107 -48 436 -81 730 -83 738 -105
942 -135 1265 -14 154 -35 372 -45 485 -11 113 -20 216 -20 228 l0 24 43 -25
c23 -13 77 -43 120 -67z m4285 -371 l-3 -81 -60 -24 c-33 -14 -121 -45 -195
-70 -74 -25 -141 -51 -147 -56 -9 -7 -13 -49 -13 -144 0 -131 0 -134 23 -139
23 -6 150 30 234 66 l45 19 -7 -77 c-4 -43 -9 -85 -11 -95 -5 -18 -86 -54
-214 -96 l-85 -27 -6 -60 c-12 -112 -10 -222 5 -234 15 -13 160 27 284 78 l72
30 -1 -42 c0 -23 -4 -64 -7 -90 l-7 -48 -73 -30 c-41 -16 -115 -41 -165 -55
-51 -14 -139 -41 -197 -59 -58 -18 -125 -36 -149 -40 l-44 -7 7 158 c10 234
35 761 42 900 l6 121 177 43 c97 24 239 65 316 91 77 26 148 48 158 48 16 1
18 -8 15 -80z m-3294 -59 c100 -34 184 -89 237 -153 56 -70 69 -107 76 -226
l6 -94 -64 6 c-35 3 -87 11 -115 17 -61 13 -64 19 -64 129 0 69 -2 75 -33 106
-58 58 -149 56 -164 -4 -3 -14 1 -175 10 -359 19 -382 21 -390 94 -418 33 -13
52 -15 71 -8 44 16 52 47 44 169 l-7 109 -47 15 -47 14 -3 81 c-2 45 -2 83 -1
85 1 2 30 -4 65 -13 35 -9 108 -22 163 -29 l100 -12 8 -213 c7 -187 6 -218 -8
-256 -23 -61 -69 -101 -136 -121 -52 -14 -63 -14 -132 0 -238 49 -337 142
-381 358 -16 78 -46 490 -47 648 -1 112 9 142 61 177 33 22 42 23 140 20 75
-4 125 -11 174 -28z m2399 -152 c-2 -46 -10 -234 -18 -418 -8 -184 -18 -415
-21 -512 l-7 -178 -31 -5 c-17 -2 -67 -11 -111 -19 -44 -8 -81 -13 -82 -12 -1
1 4 71 12 156 46 522 57 700 45 715 -8 10 -17 12 -29 6 -12 -8 -33 -106 -91
-448 l-75 -438 -50 -6 c-28 -4 -76 -9 -107 -11 l-57 -5 -5 36 c-8 48 -94 672
-102 739 -7 58 -25 85 -50 75 -15 -5 -15 -35 -8 -282 5 -152 9 -343 9 -426 l0
-150 -97 -3 -98 -3 0 590 0 591 23 4 c12 3 88 7 169 10 147 6 148 6 153 -16 3
-13 25 -189 50 -393 25 -203 47 -380 50 -391 5 -25 26 -36 44 -24 8 4 38 168
80 431 l67 423 114 13 c93 10 171 21 221 32 3 0 4 -36 2 -81z m-1517 25 l152
-6 11 -56 c15 -81 202 -1045 217 -1123 6 -28 5 -28 -48 -28 -29 0 -83 3 -120
6 l-66 7 -17 91 c-10 50 -24 98 -32 107 -9 11 -38 18 -96 22 -45 3 -89 8 -98
12 -28 11 -45 -20 -59 -109 l-13 -86 -38 0 c-21 0 -72 5 -114 11 -62 10 -75
14 -71 28 3 9 10 48 16 86 16 101 148 907 162 988 11 67 12 68 37 63 14 -3 94
-9 177 -13z m1744 -1315 c0 -12 -7 -128 -15 -257 -28 -439 -45 -726 -45 -747
0 -23 -14 -28 -147 -58 -62 -13 -63 -13 -63 8 0 21 54 588 65 677 6 49 -9 75
-37 64 -16 -6 -17 -10 -93 -425 -68 -373 -64 -358 -89 -363 -69 -17 -178 -29
-185 -21 -4 5 -18 83 -30 174 -12 91 -31 230 -42 310 -29 214 -32 232 -51 244
-40 25 -42 6 -31 -381 6 -202 10 -369 9 -370 -2 -3 -191 -20 -194 -18 -6 5 15
1046 21 1051 6 7 310 35 315 29 2 -1 24 -170 50 -375 39 -309 50 -375 64 -384
12 -7 21 -7 27 -1 6 6 42 187 80 404 39 217 72 395 73 396 2 1 57 12 123 24
66 11 134 25 150 30 44 13 45 13 45 -11z m-2025 -56 l60 -7 6 -90 c4 -49 7
-234 8 -410 1 -413 -7 -448 -119 -498 -56 -25 -124 -25 -218 -1 -65 17 -72 21
-72 44 0 14 -3 48 -6 76 l-6 52 57 -15 c62 -16 94 -12 121 14 16 16 16 48 10
439 l-7 422 52 -10 c29 -5 80 -13 114 -16z m695 -61 c27 -7 10 67 174 -766 30
-153 52 -283 50 -287 -3 -4 -52 -8 -109 -8 l-103 0 -10 48 c-6 26 -14 64 -17
85 -11 56 -34 67 -141 67 -61 0 -95 -4 -102 -12 -5 -7 -15 -46 -23 -86 -7 -40
-15 -75 -19 -77 -7 -5 -191 13 -197 19 -2 2 1 23 6 47 6 24 19 94 30 154 12
61 50 268 86 461 36 193 65 354 65 358 0 8 278 6 310 -3z"/>
<path d="M5618 8403 c6 -2 18 -2 25 0 6 3 1 5 -13 5 -14 0 -19 -2 -12 -5z"/>
<path d="M2518 8373 c12 -2 32 -2 45 0 12 2 2 4 -23 4 -25 0 -35 -2 -22 -4z"/>
<path d="M1451 6674 c0 -11 3 -14 6 -6 3 7 2 16 -1 19 -3 4 -6 -2 -5 -13z"/>
<path d="M1461 6544 c0 -11 3 -14 6 -6 3 7 2 16 -1 19 -3 4 -6 -2 -5 -13z"/>
<path d="M1722 6470 c0 -19 2 -27 5 -17 2 9 2 25 0 35 -3 9 -5 1 -5 -18z"/>
<path d="M1481 6354 c0 -11 3 -14 6 -6 3 7 2 16 -1 19 -3 4 -6 -2 -5 -13z"/>
<path d="M1631 6254 c0 -11 3 -14 6 -6 3 7 2 16 -1 19 -3 4 -6 -2 -5 -13z"/>
<path d="M3703 3078 c-16 -21 -59 -566 -46 -579 16 -16 148 -25 157 -10 8 12
-52 542 -65 579 -9 24 -31 29 -46 10z"/>
<path d="M3991 1668 c-4 -13 -11 -57 -14 -98 -4 -41 -14 -149 -22 -240 -18
-193 -19 -190 77 -190 45 0 60 4 65 17 4 9 1 64 -5 122 -28 258 -43 377 -48
394 -8 25 -43 21 -53 -5z"/>
</g>
</svg>
